<svg width="22" height="22" viewBox="0 0 22 22" fill="none" xmlns="http://www.w3.org/2000/svg">
<path d="M19.3453 7.10298C19.3453 7.76796 19.0811 8.4057 18.6109 8.87591C18.1407 9.34613 17.5029 9.61029 16.8379 9.61029C16.173 9.61029 15.5352 9.34613 15.065 8.87591C14.5948 8.4057 14.3306 7.76796 14.3306 7.10298C14.3306 6.438 14.5948 5.80025 15.065 5.33004C15.5352 4.85983 16.173 4.59566 16.8379 4.59566C17.5029 4.59566 18.1407 4.85983 18.6109 5.33004C19.0811 5.80025 19.3453 6.438 19.3453 7.10298Z" fill="#8C8C8C"/>
<path d="M1.13179 2.15216V6.69963H0.451851C0.421204 6.69972 0.39084 6.69375 0.362503 6.68208C0.334166 6.6704 0.308415 6.65324 0.286728 6.63159C0.265041 6.60993 0.247844 6.58421 0.236126 6.55589C0.224408 6.52757 0.2184 6.49721 0.218445 6.46657V0.598752C0.218445 0.400065 0.366601 0.238503 0.569758 0.238503H3.57654C3.77935 0.238503 3.92785 0.399721 3.92785 0.598065V0.942503H8.57638C8.70632 0.942503 8.81013 1.04666 8.81013 1.17488V2.49419H4.84188V2.14872C4.84188 1.95038 4.69338 1.78916 4.48988 1.78916H1.48413C1.28063 1.78916 1.13213 1.95313 1.13213 2.15216H1.13179Z" fill="#8C8C8C"/>
<path d="M10.6376 9.45305C10.6376 9.48369 10.6315 9.51402 10.6198 9.5423C10.608 9.57058 10.5908 9.59626 10.569 9.61786C10.5473 9.63945 10.5215 9.65654 10.4932 9.66814C10.4648 9.67973 10.4345 9.68561 10.4038 9.68543H2.2793C2.24867 9.68557 2.21832 9.67964 2.18998 9.668C2.16165 9.65637 2.13589 9.63924 2.1142 9.61761C2.09251 9.59598 2.07531 9.57028 2.06359 9.54198C2.05186 9.51368 2.04585 9.48334 2.0459 9.45271V3.5849C2.0459 3.38621 2.19405 3.22465 2.39721 3.22465H5.4033C5.6068 3.22465 5.7553 3.38587 5.7553 3.58421V3.92865H10.4038C10.5334 3.92865 10.6376 4.0328 10.6376 4.16102V9.45305ZM7.03371 6.11215V4.72821H5.64909V6.11215H4.2648V7.49677H5.64909V8.88105H7.03371V7.49677H8.41799V6.11215H7.03371Z" fill="#8C8C8C"/>
<path d="M19.3153 10.2562C19.6455 10.2559 19.9725 10.3207 20.2776 10.4468C20.5827 10.573 20.86 10.758 21.0936 10.9914C21.3272 11.2248 21.5125 11.5019 21.6389 11.8069C21.7654 12.1119 21.8305 12.4388 21.8305 12.769L21.8357 21.9584H13.3987V14.3406H13.057L11.5012 16.6619C11.2478 17.0074 10.7336 17.1748 10.3235 17.1748H6.67082C6.37953 17.1749 6.10012 17.0594 5.89399 16.8535C5.68786 16.6477 5.57187 16.3685 5.5715 16.0772C5.5715 15.4722 6.0641 14.9944 6.67082 14.9944H9.99316L12.298 11.5095C12.8501 10.6666 13.9301 10.2593 14.7995 10.2593L19.315 10.2565L19.3153 10.2562Z" fill="#8C8C8C"/>
</svg>
