<svg width="22" height="22" viewBox="0 0 22 22" fill="none" xmlns="http://www.w3.org/2000/svg">
<path d="M11 15.8125C10.8803 15.8125 10.7627 15.7812 10.6588 15.7218L4.64063 12.2822C4.58833 12.252 4.52901 12.2361 4.46862 12.2361C4.40824 12.2362 4.34893 12.2521 4.29666 12.2823C4.24438 12.3125 4.201 12.356 4.17086 12.4083C4.14073 12.4607 4.12491 12.52 4.125 12.5804V15.8125C4.1249 15.9352 4.15764 16.0557 4.21982 16.1615C4.28201 16.2673 4.37137 16.3545 4.47863 16.4141L10.6661 19.8516C10.7683 19.9083 10.8832 19.9381 11 19.9381C11.1168 19.9381 11.2317 19.9083 11.3339 19.8516L17.5214 16.4141C17.6286 16.3545 17.718 16.2673 17.7802 16.1615C17.8424 16.0557 17.8751 15.9352 17.875 15.8125V12.5804C17.8751 12.52 17.8593 12.4607 17.8291 12.4083C17.799 12.356 17.7556 12.3125 17.7033 12.2823C17.6511 12.2521 17.5918 12.2362 17.5314 12.2361C17.471 12.2361 17.4117 12.252 17.3594 12.2822L11.3412 15.7218C11.2373 15.7812 11.1197 15.8125 11 15.8125Z" fill="#8C8C8C"/>
<path d="M21.3092 8.18553V8.1808C21.298 8.07183 21.261 7.96709 21.2013 7.8753C21.1415 7.78352 21.0606 7.70735 20.9654 7.65315L11.3404 2.15315C11.2365 2.09376 11.1189 2.06252 10.9992 2.06252C10.8796 2.06252 10.762 2.09376 10.6581 2.15315L1.03306 7.65315C0.927867 7.71329 0.840439 7.80017 0.779631 7.90498C0.718824 8.00979 0.686798 8.12881 0.686798 8.24998C0.686798 8.37116 0.718824 8.49018 0.779631 8.59499C0.840439 8.6998 0.927867 8.78668 1.03306 8.84682L10.6581 14.3468C10.762 14.4062 10.8796 14.4374 10.9992 14.4374C11.1189 14.4374 11.2365 14.4062 11.3404 14.3468L19.8087 9.50811C19.8218 9.50055 19.8366 9.49658 19.8517 9.49659C19.8669 9.49661 19.8817 9.50061 19.8948 9.50819C19.9078 9.51578 19.9187 9.52667 19.9262 9.53979C19.9337 9.5529 19.9377 9.56776 19.9376 9.58287V15.7931C19.9376 16.1631 20.222 16.4806 20.592 16.4991C20.685 16.5036 20.7779 16.4892 20.8651 16.4567C20.9523 16.4242 21.032 16.3743 21.0994 16.3101C21.1667 16.2459 21.2204 16.1687 21.257 16.0832C21.2937 15.9976 21.3126 15.9055 21.3126 15.8125V8.24998C21.3125 8.22846 21.3114 8.20694 21.3092 8.18553Z" fill="#8C8C8C"/>
</svg>
