<svg width="22" height="22" viewBox="0 0 22 22" fill="none" xmlns="http://www.w3.org/2000/svg">
<g clip-path="url(#clip0_1666_465)">
<path d="M6.41667 0H3.66667C1.64162 0 0 1.64162 0 3.66667V6.41667C0 8.44171 1.64162 10.0833 3.66667 10.0833H6.41667C8.44171 10.0833 10.0833 8.44171 10.0833 6.41667V3.66667C10.0833 1.64162 8.44171 0 6.41667 0Z" fill="#0052A8"/>
<path d="M18.3334 0H15.5834C13.5583 0 11.9167 1.64162 11.9167 3.66667V6.41667C11.9167 8.44171 13.5583 10.0833 15.5834 10.0833H18.3334C20.3584 10.0833 22 8.44171 22 6.41667V3.66667C22 1.64162 20.3584 0 18.3334 0Z" fill="#0052A8"/>
<path d="M6.41667 11.9167H3.66667C1.64162 11.9167 0 13.5583 0 15.5833V18.3333C0 20.3584 1.64162 22 3.66667 22H6.41667C8.44171 22 10.0833 20.3584 10.0833 18.3333V15.5833C10.0833 13.5583 8.44171 11.9167 6.41667 11.9167Z" fill="#0052A8"/>
<path d="M18.3334 11.9167H15.5834C13.5583 11.9167 11.9167 13.5583 11.9167 15.5833V18.3333C11.9167 20.3584 13.5583 22 15.5834 22H18.3334C20.3584 22 22 20.3584 22 18.3333V15.5833C22 13.5583 20.3584 11.9167 18.3334 11.9167Z" fill="#0052A8"/>
</g>
<defs>
<clipPath id="clip0_1666_465">
<rect width="22" height="22" fill="white"/>
</clipPath>
</defs>
</svg>
