<svg width="46" height="46" viewBox="0 0 46 46" fill="none" xmlns="http://www.w3.org/2000/svg">
<rect opacity="0.1" width="46" height="46" rx="6" fill="#0052A8"/>
<g clip-path="url(#clip0_1642_190)">
<path d="M19.1867 30.5C19.5098 31.2428 20.0427 31.8751 20.7202 32.3193C21.3976 32.7634 22.19 33 23 33C23.8101 33 24.6025 32.7634 25.2799 32.3193C25.9573 31.8751 26.4903 31.2428 26.8134 30.5H19.1867Z" fill="#0052A8"/>
<path d="M31.66 23.4575L30.2134 18.6883C29.7501 17.0203 28.7429 15.5548 27.3516 14.5246C25.9603 13.4944 24.2648 12.9584 22.5341 13.0019C20.8035 13.0454 19.137 13.6657 17.7992 14.7645C16.4614 15.8633 15.529 17.3775 15.15 19.0667L14.0267 23.6808C13.8774 24.294 13.8693 24.933 14.003 25.5497C14.1368 26.1664 14.4088 26.7447 14.7987 27.2409C15.1886 27.7371 15.6861 28.1383 16.2536 28.4141C16.8212 28.69 17.444 28.8333 18.075 28.8333H27.6725C28.3231 28.8334 28.9647 28.681 29.5459 28.3885C30.127 28.096 30.6316 27.6715 31.0192 27.149C31.4068 26.6264 31.6667 26.0204 31.7779 25.3793C31.8892 24.7383 31.8488 24.0801 31.66 23.4575Z" fill="#0052A8"/>
</g>
<defs>
<clipPath id="clip0_1642_190">
<rect width="20" height="20" fill="white" transform="translate(13 13)"/>
</clipPath>
</defs>
</svg>
