<svg width="46" height="46" viewBox="0 0 46 46" fill="none" xmlns="http://www.w3.org/2000/svg">
<rect opacity="0.1" width="46" height="46" rx="6" fill="#0052A8"/>
<path d="M14.3392 28C14.5032 28.2847 14.7217 28.5342 14.9823 28.7344C15.2428 28.9345 15.5402 29.0814 15.8575 29.1665C16.1749 29.2516 16.5058 29.2734 16.8316 29.2305C17.1573 29.1877 17.4714 29.081 17.7559 28.9167L18.1267 28.7025C18.8267 29.3014 19.6313 29.7659 20.5 30.0725V30.5C20.5 31.163 20.7634 31.7989 21.2323 32.2678C21.7011 32.7366 22.337 33 23 33C23.6631 33 24.299 32.7366 24.7678 32.2678C25.2366 31.7989 25.5 31.163 25.5 30.5V30.0725C26.3689 29.7654 27.1735 29.3003 27.8734 28.7008L28.2459 28.9158C28.8205 29.2474 29.5033 29.337 30.1441 29.1651C30.7848 28.9932 31.331 28.5738 31.6625 27.9992C31.9941 27.4245 32.0837 26.7417 31.9118 26.101C31.7399 25.4602 31.3205 24.914 30.7459 24.5825L30.3759 24.3692C30.5424 23.4629 30.5424 22.5338 30.3759 21.6275L30.7459 21.4142C31.0304 21.25 31.2798 21.0314 31.4799 20.7709C31.6799 20.5103 31.8267 20.2129 31.9118 19.8957C31.9969 19.5784 32.0187 19.2475 31.976 18.9218C31.9332 18.5961 31.8267 18.282 31.6625 17.9975C31.4984 17.713 31.2798 17.4636 31.0193 17.2635C30.7587 17.0634 30.4613 16.9167 30.1441 16.8316C29.8268 16.7464 29.4959 16.7246 29.1702 16.7674C28.8445 16.8102 28.5304 16.9167 28.2459 17.0808L27.875 17.295C27.1743 16.6968 26.3692 16.2332 25.5 15.9275V15.5C25.5 14.837 25.2366 14.2011 24.7678 13.7322C24.299 13.2634 23.6631 13 23 13C22.337 13 21.7011 13.2634 21.2323 13.7322C20.7634 14.2011 20.5 14.837 20.5 15.5V15.9275C19.6312 16.2346 18.8266 16.6997 18.1267 17.2992L17.7542 17.0833C17.1796 16.7518 16.4968 16.6621 15.856 16.8341C15.2153 17.006 14.6691 17.4254 14.3375 18C14.006 18.5746 13.9163 19.2574 14.0883 19.8982C14.2602 20.5389 14.6796 21.0851 15.2542 21.4167L15.6242 21.63C15.4576 22.5363 15.4576 23.4654 15.6242 24.3717L15.2542 24.585C14.681 24.9175 14.2629 25.4635 14.0914 26.1035C13.92 26.7436 14.009 27.4255 14.3392 28ZM23 19.6667C23.6593 19.6667 24.3038 19.8622 24.8519 20.2284C25.4001 20.5947 25.8273 21.1153 26.0796 21.7244C26.3319 22.3335 26.3979 23.0037 26.2693 23.6503C26.1407 24.2969 25.8232 24.8908 25.3571 25.357C24.8909 25.8232 24.2969 26.1407 23.6503 26.2693C23.0037 26.3979 22.3335 26.3319 21.7244 26.0796C21.1153 25.8273 20.5947 25.4001 20.2285 24.8519C19.8622 24.3037 19.6667 23.6593 19.6667 23C19.6667 22.1159 20.0179 21.2681 20.643 20.643C21.2681 20.0179 22.116 19.6667 23 19.6667Z" fill="#0052A8"/>
</svg>
