<svg width="22" height="22" viewBox="0 0 22 22" fill="none" xmlns="http://www.w3.org/2000/svg">
<path d="M2.74999 3.66667V14.6667H19.25V3.66667H2.74999ZM2.74999 1.83334H19.25C19.7362 1.83334 20.2025 2.02649 20.5464 2.37031C20.8902 2.71412 21.0833 3.18044 21.0833 3.66667V14.6667C21.0833 15.1525 20.8908 15.62 20.5425 15.9592C20.2033 16.3075 19.7358 16.5 19.25 16.5H12.8333V18.3333H14.6667V20.1667H7.33332V18.3333H9.16666V16.5H2.74999C2.26416 16.5 1.79666 16.3075 1.45749 15.9592C1.10916 15.62 0.916656 15.1525 0.916656 14.6667V3.66667C0.916656 2.64917 1.73249 1.83334 2.74999 1.83334ZM9.93666 8.18584C10.2208 7.91084 10.6058 7.74584 11 7.74584C11.3942 7.755 11.7792 7.91084 12.0633 8.195C12.3383 8.47 12.5033 8.855 12.5033 9.24917C12.5033 9.6525 12.3383 10.0283 12.0633 10.3125C11.7792 10.5967 11.3942 10.7525 11 10.7525C10.6058 10.7525 10.2208 10.5875 9.93666 10.3125C9.66166 10.0283 9.49666 9.6525 9.49666 9.24917C9.49666 8.855 9.66166 8.47 9.93666 8.18584ZM9.23082 11C9.45993 11.238 9.73471 11.4273 10.0387 11.5566C10.3427 11.6859 10.6696 11.7526 11 11.7526C11.3303 11.7526 11.6573 11.6859 11.9613 11.5566C12.2653 11.4273 12.54 11.238 12.7692 11C13.2367 10.5417 13.5025 9.90917 13.5025 9.24917C13.5025 8.58917 13.2367 7.9475 12.7692 7.48C12.3017 7.0125 11.66 6.74667 11 6.74667C10.34 6.74667 9.69832 7.0125 9.23082 7.48C8.76332 7.9475 8.49749 8.58917 8.49749 9.24917C8.49749 9.90917 8.76332 10.5417 9.23082 11ZM5.49999 9.24917C5.93437 8.1443 6.69131 7.19578 7.67228 6.52709C8.65324 5.8584 9.81279 5.50051 11 5.5C13.5025 5.5 15.6383 7.05834 16.5 9.24917C16.0687 10.3562 15.3125 11.3067 14.3309 11.9759C13.3492 12.6451 12.188 13.0015 11 12.9983C8.49749 12.9983 6.36166 11.4583 5.49999 9.24917Z" fill="#0052A8"/>
</svg>
