<svg width="90" height="18" viewBox="0 0 90 18" fill="none" xmlns="http://www.w3.org/2000/svg">
<g clip-path="url(#clip0_103_187)">
<path fill-rule="evenodd" clip-rule="evenodd" d="M58.325 0.00679989C57.7252 0.0583522 57.1795 0.333572 56.8169 0.777119C56.2814 1.42375 56.1762 2.37293 56.5491 3.14671C57.0913 4.26439 58.6945 4.63596 59.7756 3.88953C60.6365 3.29791 60.9009 2.18023 60.4229 1.18624C60.0501 0.419383 59.1926 -0.062211 58.325 0.00663518V0.00679989Z" fill="black"/>
<path fill-rule="evenodd" clip-rule="evenodd" d="M1.58032 0.0722658C1.25165 0.151324 0.861782 0.381744 0.604199 0.643129C0.346616 0.904514 0.139836 1.28284 0.045048 1.66808C-0.0328599 1.97756 -0.00575445 2.56572 0.0958504 2.87174C0.37713 3.69377 1.09226 4.22329 1.99713 4.27155C3.65105 4.36444 4.74922 2.88903 4.1628 1.3586C4.04757 1.05258 3.78998 0.694846 3.54603 0.49539C3.33584 0.323439 2.97325 0.141112 2.69197 0.0689718C2.4412 0.00358439 1.85137 0.00358439 1.58032 0.0724305V0.0722658Z" fill="black"/>
<path fill-rule="evenodd" clip-rule="evenodd" d="M6.60657 9.07909V17.66H8.47051H10.3346V9.07909V0.49836H8.47051H6.60657V9.07909Z" fill="black"/>
<path fill-rule="evenodd" clip-rule="evenodd" d="M13.0801 9.07909V17.66H14.9611H16.8421V9.07909V0.49836H14.9611H13.0801V9.07909Z" fill="black"/>
<path fill-rule="evenodd" clip-rule="evenodd" d="M40.4489 5.40294C39.5406 5.54392 38.7542 5.91533 38.1443 6.48965C37.9883 6.63755 37.8527 6.75795 37.8427 6.75795C37.8325 6.75795 37.8224 6.51716 37.8224 6.22481V5.69166H35.9583H34.0942V11.6758V17.66H35.9549H37.819L37.8326 14.3997C37.8463 11.5693 37.8529 11.1084 37.9005 10.8711C38.158 9.5986 38.7816 8.91755 39.8154 8.78348C40.6863 8.67 41.4761 9.09296 41.8523 9.87019C42.0862 10.362 42.0726 10.1041 42.0828 14.0764L42.0965 17.66H43.974H45.855V14.4857C45.855 11.0981 45.8618 10.964 46.0245 10.4205C46.2752 9.59843 46.8175 9.03449 47.5529 8.83503C47.8715 8.74906 48.4477 8.75597 48.7358 8.85216C49.4678 9.09296 49.9559 9.7017 50.0882 10.5409C50.1119 10.6853 50.1255 11.9716 50.1255 14.2105V17.66H51.9896H53.8571L53.8469 13.5571L53.8367 9.45761L53.7588 9.0862C53.5283 7.97874 53.0505 7.11207 52.298 6.43793C51.7557 5.94959 51.0609 5.59877 50.295 5.43028C49.895 5.34084 48.7631 5.34084 48.2953 5.42682C47.6073 5.55759 46.9227 5.84302 46.3431 6.23848C46.0177 6.45852 45.4653 6.96416 45.2959 7.2015C45.2417 7.2771 45.1874 7.34249 45.1738 7.34249C45.1636 7.34249 45.0925 7.24959 45.0112 7.13265C44.6315 6.58584 44.1097 6.14558 43.4691 5.82919C42.7676 5.48183 42.1406 5.3443 41.2627 5.35122C40.9848 5.35468 40.6188 5.37527 40.4492 5.40277L40.4489 5.40294Z" fill="black"/>
<path fill-rule="evenodd" clip-rule="evenodd" d="M70.0022 5.36866C68.8532 5.54407 67.9923 5.93606 67.2806 6.60328L67.0366 6.8337V6.26284V5.69197H65.1556H63.2747V11.6762V17.6603H65.1556H67.0366V14.6407C67.0366 12.7559 67.0503 11.5144 67.0706 11.3321C67.179 10.4448 67.44 9.81533 67.884 9.37178C68.2806 8.97633 68.7855 8.78017 69.4261 8.77341C70.0397 8.7665 70.4328 8.92478 70.8361 9.33407C71.1276 9.62987 71.2902 9.92568 71.4157 10.3865C71.4936 10.6616 71.4936 10.665 71.5038 14.1594L71.5141 17.6605H73.3748H75.2389V13.9015C75.2389 10.0599 75.2252 9.64371 75.1033 9.02805C74.7644 7.33588 73.7104 6.0703 72.2394 5.59233C71.6835 5.41 71.4735 5.37904 70.7652 5.36537C70.4026 5.35845 70.0603 5.36191 70.0027 5.36882L70.0022 5.36866Z" fill="black"/>
<path fill-rule="evenodd" clip-rule="evenodd" d="M80.4905 6.07367C81.2667 5.6988 82.0292 5.49589 82.9985 5.403H82.9986C84.1035 5.29989 85.4727 5.5509 86.5064 6.04962C87.8078 6.67896 88.8145 7.67624 89.4041 8.93507C90.3158 10.8644 90.1701 13.3098 89.0415 15.0981C87.9943 16.7559 86.1201 17.8254 84.0324 17.9664C81.7412 18.1178 79.64 17.2305 78.2979 15.5453C77.7623 14.8712 77.3489 13.9529 77.1455 12.9865C77.0608 12.5841 77.0539 12.4912 77.0505 11.6934C77.0505 10.9263 77.0606 10.7888 77.1284 10.4414C77.5216 8.47769 78.7077 6.93688 80.4905 6.07367ZM85.8895 9.9083C85.5099 9.30993 84.8931 8.84909 84.2356 8.66331L84.2354 8.66281C83.9541 8.58376 83.2492 8.56646 82.9646 8.63185C82.3376 8.773 81.7037 9.16154 81.3343 9.62929C81.0224 10.0215 80.8632 10.3515 80.7208 10.8847C80.6158 11.2664 80.6158 12.0575 80.7208 12.4839C80.8834 13.1444 81.2902 13.7841 81.7951 14.1761L82.0324 14.3584L82.0595 13.9732C82.0732 13.7601 82.0766 13.5433 82.0697 13.4918C82.0459 13.3679 82.0934 13.3542 82.5713 13.3748C82.7881 13.3852 82.9644 13.3852 82.9644 13.3783C82.9644 13.3715 82.7881 13.3061 82.5713 13.2408C82.3544 13.1721 82.1511 13.0861 82.1137 13.0482C81.9748 12.9072 82.0866 12.5702 82.2697 12.5702C82.3918 12.5702 83.3069 12.8455 83.4221 12.9176L83.5271 12.9795L83.561 12.8832L83.5984 12.7868L82.9748 12.5701C82.1817 12.2916 82.1512 12.2743 82.1512 12.0748C82.1512 11.9477 82.1683 11.9098 82.2428 11.8479C82.3512 11.7619 82.5241 11.7723 82.8087 11.8892C82.9037 11.9271 83.3646 12.0956 83.8357 12.2641C84.3068 12.4291 84.7202 12.5874 84.7576 12.6114C84.9405 12.7284 84.9168 13.0034 84.7168 13.0963C84.6319 13.1376 84.2117 13.2236 84.1033 13.2236C84.0932 13.2236 84.083 13.2546 84.083 13.2925C84.083 13.3542 84.1101 13.3612 84.4829 13.3681L84.8795 13.3784L84.8897 13.8772C84.8965 14.1488 84.9066 14.3792 84.9134 14.3861C84.9439 14.4171 85.3709 14.0766 85.5811 13.8497C86.1403 13.2477 86.4183 12.436 86.3776 11.5212C86.3505 10.8919 86.1979 10.3932 85.8895 9.9083ZM83.3704 10.2105C83.3196 10.0764 83.3299 10.0282 83.4349 9.91813V9.9183C83.4993 9.85637 83.5704 9.81849 83.6314 9.81849C83.7433 9.81849 84.6618 10.1349 84.7804 10.2139C84.882 10.2828 84.9159 10.4101 84.8617 10.5442C84.7736 10.7573 84.6483 10.7608 84.0653 10.5648C83.5264 10.379 83.4112 10.3205 83.3704 10.2105ZM82.2398 10.269C82.1212 10.3619 82.1178 10.5649 82.2296 10.6714C82.338 10.7745 84.4495 11.5381 84.6291 11.5381C84.741 11.5381 84.8969 11.3661 84.8969 11.2457C84.8969 11.0599 84.7885 11.0015 83.8293 10.6645C83.6485 10.6 83.4677 10.536 83.3054 10.4785L83.3053 10.4785C83.0175 10.3766 82.7882 10.2954 82.7211 10.269C82.4771 10.1796 82.355 10.1762 82.2398 10.269ZM82.2184 11.487C82.1269 11.401 82.1269 11.1844 82.2184 11.0915V11.0914C82.327 10.9814 82.5099 11.0054 83.0556 11.2083C83.3301 11.3081 83.8147 11.4835 84.1299 11.5936C84.7874 11.8274 84.9197 11.9134 84.8824 12.0992C84.8587 12.2231 84.7232 12.364 84.6248 12.364C84.4891 12.364 82.3066 11.5695 82.2184 11.487Z" fill="black"/>
<path fill-rule="evenodd" clip-rule="evenodd" d="M19.3844 9.3441C19.3844 11.4421 19.398 13.2029 19.4183 13.478C19.4928 14.5407 19.7504 15.3558 20.2521 16.1193C20.9096 17.1235 21.9468 17.7633 23.221 17.956C23.7226 18.0316 24.6106 18.0075 25.0715 17.9044C25.9697 17.7084 26.7628 17.306 27.3456 16.7488L27.5863 16.5184V17.0893V17.6602H29.4673H31.3483V11.676V5.69179H29.4673H27.5863V8.72514C27.5863 10.7164 27.5727 11.8685 27.549 12.0714C27.3524 13.6982 26.5289 14.5683 25.1799 14.5751C24.5969 14.5785 24.1699 14.4066 23.7904 14.0179C23.4041 13.6224 23.2074 13.1718 23.1465 12.515C23.1263 12.288 23.1126 10.878 23.1126 8.91406V5.69146H21.2485H19.3844V9.34393V9.3441Z" fill="black"/>
<path fill-rule="evenodd" clip-rule="evenodd" d="M56.5958 11.6758V17.66H58.4768H60.3578V11.6758V5.69146H58.4768H56.5958V11.6758Z" fill="black"/>
<path fill-rule="evenodd" clip-rule="evenodd" d="M0.24869 11.5314L2.25709 12.4027C2.20434 12.5252 2.14218 12.6466 2.1115 12.8204C1.85895 12.5382 1.65623 12.4878 1.2378 12.348C0.912855 12.2393 0.548473 12.0794 0.24869 11.9871C0.243983 11.994 0.239276 11.9977 0.23814 12.0099L0.21282 12.1205C0.193667 12.347 0.189123 13.2745 0.24869 13.3685L1.0367 13.6923C1.04108 13.6849 1.05293 13.7052 1.06055 13.7099L0.24869 13.7056C0.171756 13.8148 0.215092 16.39 0.213956 16.714C0.213307 16.8785 0.19529 16.9696 0.23814 17.1142C0.240087 17.1206 0.244145 17.1321 0.24869 17.1402L0.661926 17.2705L0.667445 17.6954H3.48885L3.48917 17.2397C3.60344 17.1926 3.70666 17.1758 3.81298 17.132C3.92383 17.0864 4.00044 17.0299 4.09263 16.9847V13.7093L3.18647 13.704L3.18614 13.3746L4.09263 13.1972V11.7842C3.44843 11.551 2.80001 11.2218 2.16733 10.9518C1.83736 10.811 1.51908 10.6802 1.19284 10.5353C0.86335 10.389 0.626868 10.224 0.24869 10.1364C0.20016 10.1968 0.212495 10.3613 0.213469 10.4386C0.215254 10.6063 0.181332 11.4138 0.24869 11.5311V11.5314Z" fill="#FFCC00"/>
<path fill-rule="evenodd" clip-rule="evenodd" d="M0.248898 7.95521C0.529853 8.03097 0.924586 8.2273 1.20213 8.35281C1.51474 8.49412 1.82783 8.62242 2.14076 8.76951C2.44054 8.91049 3.84045 9.54872 4.09284 9.56502V8.19205C3.77991 8.0621 3.45903 7.89971 3.1396 7.75855C2.81726 7.61609 2.4894 7.50771 2.17371 7.36969C1.83822 7.22294 0.475966 6.58306 0.248898 6.53925C0.191116 6.64746 0.188194 7.70947 0.221143 7.87467C0.235426 7.94632 0.223415 7.91123 0.248898 7.95505V7.95521Z" fill="#FFCC00"/>
<path fill-rule="evenodd" clip-rule="evenodd" d="M0.250124 9.79502C0.586426 9.8978 0.903252 10.0625 1.21521 10.1987C1.52765 10.3351 1.84431 10.4752 2.15692 10.6136C2.49971 10.7655 3.78747 11.3737 4.09407 11.3956V10.0352L2.16276 9.20522C1.80114 9.04891 0.49878 8.42946 0.250124 8.37906C0.188447 8.46537 0.191206 9.70015 0.250124 9.79518V9.79502Z" fill="#FFCC00"/>
<path fill-rule="evenodd" clip-rule="evenodd" d="M4.09453 7.72884V6.34994C3.65419 6.19199 3.26384 5.9446 2.80662 5.78435C2.19975 5.57171 1.75032 5.72225 1.79025 6.36806C1.82255 6.88901 2.34924 7.03758 2.7813 7.2115C3.07118 7.32828 3.82884 7.70479 4.09437 7.72867L4.09453 7.72884Z" fill="#FFCC00"/>
</g>
<defs>
<clipPath id="clip0_103_187">
<rect width="90" height="18" fill="white"/>
</clipPath>
</defs>
</svg>
